<svg version="1.1" id="Layer_1" xmlns="http://www.w3.org/2000/svg" xmlns:xlink="http://www.w3.org/1999/xlink" x="0px" y="0px"
	 width="100%" viewBox="0 0 1024 1024" enable-background="new 0 0 1024 1024" xml:space="preserve">
<path opacity="0" stroke="none" 
	d="
M1.000000,394.000000 
	C1.000000,262.666687 1.000000,131.833359 1.000000,1.000035 
	C342.333282,1.000023 683.666565,1.000023 1025.000000,1.000012 
	C1025.000000,342.333252 1025.000000,683.666504 1025.000000,1024.999756 
	C683.666809,1024.999878 342.333618,1024.999878 1.000207,1025.000000 
	C1.000000,814.833313 1.000000,604.666687 1.000000,394.000000 
M874.723694,629.499023 
	C874.723694,465.436920 874.723694,301.374817 874.723694,136.866211 
	C859.014771,136.866211 843.614380,136.866211 827.922607,136.866211 
	C827.922607,121.464081 827.922607,106.505859 827.922607,91.431969 
	C633.849609,91.431969 440.078705,91.431969 245.928757,91.431969 
	C245.928757,106.813812 245.928757,121.739288 245.928757,137.058624 
	C230.479965,137.058624 215.404480,137.058624 199.981842,137.058624 
	C199.981842,152.531769 199.981842,167.609497 199.981842,183.115036 
	C184.731537,183.115036 169.829865,183.115036 154.071548,183.115036 
	C154.071548,405.957123 154.071548,628.366699 154.071548,851.493652 
	C169.920990,851.493652 185.297470,851.493652 200.890900,851.493652 
	C200.890900,866.758484 200.890900,881.308655 200.890900,896.141113 
	C216.339813,896.141113 231.448700,896.141113 246.996460,896.141113 
	C246.996460,911.498596 246.996460,926.571167 246.996460,942.170898 
	C456.473053,942.170898 665.505554,942.170898 874.566956,942.170898 
	C874.566956,910.595764 874.566956,879.705017 874.566956,848.098145 
	C859.308228,848.098145 844.251770,848.098145 829.339417,848.098145 
	C829.339417,803.311890 829.339417,759.242615 829.339417,714.802979 
	C844.713135,714.802979 859.777466,714.802979 874.726135,714.802979 
	C874.726135,686.453064 874.726135,658.475586 874.723694,629.499023 
z"/>
<path fill="#22c55e" opacity="1.00" stroke="none" 
	d="
M874.724915,629.998596 
	C874.726135,658.475586 874.726135,686.453064 874.726135,714.802979 
	C859.777466,714.802979 844.713135,714.802979 829.339417,714.802979 
	C829.339417,759.242615 829.339417,803.311890 829.339417,848.098145 
	C844.251770,848.098145 859.308228,848.098145 874.566956,848.098145 
	C874.566956,879.705017 874.566956,910.595764 874.566956,942.170898 
	C665.505554,942.170898 456.473053,942.170898 246.996460,942.170898 
	C246.996460,926.571167 246.996460,911.498596 246.996460,896.141113 
	C231.448700,896.141113 216.339813,896.141113 200.890900,896.141113 
	C200.890900,881.308655 200.890900,866.758484 200.890900,851.493652 
	C185.297470,851.493652 169.920990,851.493652 154.071548,851.493652 
	C154.071548,628.366699 154.071548,405.957123 154.071548,183.115036 
	C169.829865,183.115036 184.731537,183.115036 199.981842,183.115036 
	C199.981842,167.609497 199.981842,152.531769 199.981842,137.058624 
	C215.404480,137.058624 230.479965,137.058624 245.928757,137.058624 
	C245.928757,121.739288 245.928757,106.813812 245.928757,91.431969 
	C440.078705,91.431969 633.849609,91.431969 827.922607,91.431969 
	C827.922607,106.505859 827.922607,121.464081 827.922607,136.866211 
	C843.614380,136.866211 859.014771,136.866211 874.723694,136.866211 
	C874.723694,301.374817 874.723694,465.436920 874.724915,629.998596 
M587.500000,138.000244 
	C489.415131,138.000244 391.330231,138.000244 293.584167,138.000244 
	C293.584167,153.282379 293.584167,168.009796 293.584167,183.127762 
	C309.099884,183.127762 324.034393,183.127762 339.627808,183.127762 
	C339.627808,344.868805 339.627808,506.210724 339.627808,667.526978 
	C502.470917,667.526978 664.645264,667.526978 826.506409,667.526978 
	C826.506409,505.502441 826.506409,343.949341 826.506409,181.848679 
	C811.367920,181.848679 796.643555,181.848679 781.659912,181.848679 
	C781.659912,167.017441 781.659912,152.733948 781.659912,138.000214 
	C717.054810,138.000214 652.777405,138.000214 587.500000,138.000244 
M560.500000,895.924133 
	C634.252625,895.924133 708.005249,895.924133 781.723633,895.924133 
	C781.723633,865.036194 781.723633,834.634644 781.723633,804.499512 
	C634.392883,804.499512 487.342346,804.499512 340.242432,804.499512 
	C340.242432,789.118958 340.242432,773.720581 340.242432,757.459351 
	C487.190796,757.459351 633.901184,757.459351 780.809998,757.459351 
	C780.809998,742.514343 780.809998,728.433594 780.809998,714.184326 
	C618.135742,714.184326 455.655029,714.184326 292.823822,714.184326 
	C292.823822,729.573547 292.823822,744.156860 292.823822,758.513184 
	C277.584045,758.513184 262.696838,758.513184 247.882095,758.513184 
	C247.882095,789.283875 247.882095,819.989380 247.882095,850.877075 
	C263.523254,850.877075 278.461884,850.877075 293.765076,850.877075 
	C293.765076,865.940308 293.765076,880.820557 293.765076,895.909180 
	C382.587830,895.909180 471.043976,895.909180 560.500000,895.924133 
M292.362854,526.500244 
	C292.506561,514.341309 292.825256,502.181427 292.758240,490.023651 
	C292.608582,462.872620 292.078430,435.722900 292.039062,408.572144 
	C291.933014,335.424377 291.954010,262.276276 292.111694,189.128677 
	C292.122284,184.211548 290.613739,182.713654 285.888000,182.907806 
	C278.568634,183.208527 271.228119,182.995407 263.896576,182.997925 
	C258.310333,182.999847 252.724091,182.998322 247.485352,182.998322 
	C247.485352,345.377686 247.485352,507.065643 247.485352,668.677124 
	C262.560913,668.677124 277.149261,668.677124 292.361511,668.677124 
	C292.361511,621.421875 292.361511,574.461121 292.362854,526.500244 
z"/>
<path fill="#FEFEFC" opacity="0" stroke="none" 
	d="
M588.000000,138.000229 
	C652.777405,138.000214 717.054810,138.000214 781.659912,138.000214 
	C781.659912,152.733948 781.659912,167.017441 781.659912,181.848679 
	C796.643555,181.848679 811.367920,181.848679 826.506409,181.848679 
	C826.506409,343.949341 826.506409,505.502441 826.506409,667.526978 
	C664.645264,667.526978 502.470917,667.526978 339.627808,667.526978 
	C339.627808,506.210724 339.627808,344.868805 339.627808,183.127762 
	C324.034393,183.127762 309.099884,183.127762 293.584167,183.127762 
	C293.584167,168.009796 293.584167,153.282379 293.584167,138.000244 
	C391.330231,138.000244 489.415131,138.000244 588.000000,138.000229 
M448.501648,229.012100 
	C442.887909,229.012100 437.274200,229.012100 431.924744,229.012100 
	C431.924744,244.946304 431.924744,260.329102 431.924744,275.204376 
	C548.325378,275.204376 664.050049,275.204376 779.757202,275.204376 
	C779.757202,259.355194 779.757202,244.284866 779.757202,229.011124 
	C669.453186,229.011124 559.476990,229.011124 448.501648,229.012100 
M602.500000,366.969177 
	C645.947449,366.969177 689.394897,366.969177 733.316650,366.969177 
	C733.316650,351.321320 733.316650,335.764893 733.316650,320.237457 
	C632.814575,320.237457 532.564026,320.237457 432.274780,320.237457 
	C432.274780,336.042694 432.274780,351.603027 432.274780,366.970337 
	C488.868622,366.970337 545.184326,366.970337 602.500000,366.969177 
z"/>
<path fill="#FDFDFB" opacity="0" stroke="none" 
	d="
M560.000061,895.916626 
	C471.043976,895.909180 382.587830,895.909180 293.765076,895.909180 
	C293.765076,880.820557 293.765076,865.940308 293.765076,850.877075 
	C278.461884,850.877075 263.523254,850.877075 247.882095,850.877075 
	C247.882095,819.989380 247.882095,789.283875 247.882095,758.513184 
	C262.696838,758.513184 277.584045,758.513184 292.823822,758.513184 
	C292.823822,744.156860 292.823822,729.573547 292.823822,714.184326 
	C455.655029,714.184326 618.135742,714.184326 780.809998,714.184326 
	C780.809998,728.433594 780.809998,742.514343 780.809998,757.459351 
	C633.901184,757.459351 487.190796,757.459351 340.242432,757.459351 
	C340.242432,773.720581 340.242432,789.118958 340.242432,804.499512 
	C487.342346,804.499512 634.392883,804.499512 781.723633,804.499512 
	C781.723633,834.634644 781.723633,865.036194 781.723633,895.924133 
	C708.005249,895.924133 634.252625,895.924133 560.000061,895.916626 
z"/>
<path fill="#FDFDFB" opacity="0" stroke="none" 
	d="
M292.362183,527.000244 
	C292.361511,574.461121 292.361511,621.421875 292.361511,668.677124 
	C277.149261,668.677124 262.560913,668.677124 247.485352,668.677124 
	C247.485352,507.065643 247.485352,345.377686 247.485352,182.998322 
	C252.724091,182.998322 258.310333,182.999847 263.896576,182.997925 
	C271.228119,182.995407 278.568634,183.208527 285.888000,182.907806 
	C290.613739,182.713654 292.122284,184.211548 292.111694,189.128677 
	C291.954010,262.276276 291.933014,335.424377 292.039062,408.572144 
	C292.078430,435.722900 292.608582,462.872620 292.758240,490.023651 
	C292.825256,502.181427 292.506561,514.341309 292.362183,527.000244 
z"/>
<path fill="#22c55e" opacity="1.00" stroke="none" 
	d="
M449.001251,229.011612 
	C559.476990,229.011124 669.453186,229.011124 779.757202,229.011124 
	C779.757202,244.284866 779.757202,259.355194 779.757202,275.204376 
	C664.050049,275.204376 548.325378,275.204376 431.924744,275.204376 
	C431.924744,260.329102 431.924744,244.946304 431.924744,229.012100 
	C437.274200,229.012100 442.887909,229.012100 449.001251,229.011612 
z"/>
<path fill="#22c55e" opacity="1.0" stroke="none" 
	d="
M602.000000,366.969757 
	C545.184326,366.970337 488.868622,366.970337 432.274780,366.970337 
	C432.274780,351.603027 432.274780,336.042694 432.274780,320.237457 
	C532.564026,320.237457 632.814575,320.237457 733.316650,320.237457 
	C733.316650,335.764893 733.316650,351.321320 733.316650,366.969177 
	C689.394897,366.969177 645.947449,366.969177 602.000000,366.969757 
z"/>
</svg>