<?xml version="1.0" encoding="UTF-8"?>
<svg version="1.1" xmlns="http://www.w3.org/2000/svg" width="512" height="512">
<path d="M0 0 C14.19 0 28.38 0 43 0 C43 14.19 43 28.38 43 43 C57.19 43 71.38 43 86 43 C86 56.86 86 70.72 86 85 C99.77724113 84.96039433 99.77724113 84.96039433 113.55444336 84.90991211 C115.2745762 84.90699302 116.99470972 84.90444445 118.71484375 84.90234375 C119.61658325 84.89722778 120.51832275 84.89211182 121.4473877 84.88684082 C123.63191745 84.88653118 125.8163633 84.9375413 128 85 C129 86 129 86 129.11352539 89.96899414 C129.11327421 91.74105605 129.10770978 93.51312284 129.09765625 95.28515625 C129.09664917 96.1097937 129.09564209 96.93443115 129.09460449 97.78405762 C129.08935592 100.87688581 129.07539477 103.96969424 129.0625 107.0625 C129.041875 113.971875 129.02125 120.88125 129 128 C142.86 128 156.72 128 171 128 C171 142.52 171 157.04 171 172 C157.14 172 143.28 172 129 172 C129 185.86 129 199.72 129 214 C114.81 214 100.62 214 86 214 C86 228.19 86 242.38 86 257 C71.81 257 57.62 257 43 257 C43 271.19 43 285.38 43 300 C28.81 300 14.62 300 0 300 C0 271.62 0 243.24 0 214 C-98.67 214 -197.34 214 -299 214 C-299 171.43 -299 128.86 -299 85 C-200.33 85 -101.66 85 0 85 C0 56.95 0 28.9 0 0 Z " fill="#22c55e" transform="translate(320,106)"/>
</svg>
