<?xml version="1.0" encoding="UTF-8"?>
<svg version="1.1" xmlns="http://www.w3.org/2000/svg" width="512" height="512">
<path d="M0 0 C0.92860336 -0.0065712 1.85720673 -0.0131424 2.81394958 -0.01991272 C5.89574254 -0.03966964 8.97748673 -0.05131333 12.05932617 -0.0612793 C13.11037725 -0.06535482 14.16142834 -0.06943035 15.24432945 -0.07362938 C20.80676452 -0.09449982 26.36917485 -0.10879762 31.93164062 -0.11816406 C37.68200987 -0.1292336 43.43199269 -0.16363721 49.18222523 -0.20333576 C53.59942859 -0.22945895 58.01653927 -0.23785206 62.4338131 -0.24144554 C64.55372415 -0.24632222 66.67363077 -0.2579668 68.79346657 -0.27648354 C71.75975953 -0.30078439 74.7250446 -0.29992645 77.69140625 -0.29296875 C79.00623489 -0.31218384 79.00623489 -0.31218384 80.34762573 -0.33178711 C84.44712643 -0.29671908 86.5150062 -0.15372876 90.06156921 2.08137512 C94.67529811 6.9689135 93.34161711 14.20657505 93.38989258 20.57958984 C93.40644017 22.18097478 93.43371502 23.78228622 93.47192383 25.38330078 C93.52682223 27.69643311 93.54858411 30.00783631 93.56323242 32.3215332 C93.58590179 33.03316116 93.60857117 33.74478912 93.63192749 34.47798157 C93.61557548 38.34430813 93.15075105 40.03481802 90.74536133 43.1171875 C87.47673003 45.60567715 85.09345326 45.93855146 81.03979492 46.17700195 C81.00241211 47.03036133 80.9650293 47.8837207 80.92651367 48.76293945 C80.44613635 57.89952766 79.578672 66.96167118 78.53979492 76.05200195 C78.40919678 77.21135254 78.27859863 78.37070312 78.14404297 79.56518555 C77.95322144 81.19447998 77.95322144 81.19447998 77.75854492 82.85668945 C77.64446289 83.8336377 77.53038086 84.81058594 77.4128418 85.81713867 C77.03979492 88.17700195 77.03979492 88.17700195 76.03979492 90.17700195 C169.42979492 90.17700195 262.81979492 90.17700195 359.03979492 90.17700195 C359.03979492 74.66700195 359.03979492 59.15700195 359.03979492 43.17700195 C365.96979492 43.17700195 372.89979492 43.17700195 380.03979492 43.17700195 C380.03979492 58.68700195 380.03979492 74.19700195 380.03979492 90.17700195 C383.50479492 89.68200195 383.50479492 89.68200195 387.03979492 89.17700195 C388.85659608 86.29350267 388.85659608 86.29350267 390.03979492 83.17700195 C393.5331631 80.84808984 394.89987357 80.94149053 399.02026367 80.98168945 C400.06851318 80.98668457 401.1167627 80.99167969 402.19677734 80.99682617 C403.52684814 81.01503418 404.85691895 81.03324219 406.22729492 81.05200195 C412.56948242 81.11387695 412.56948242 81.11387695 419.03979492 81.17700195 C419.03979492 71.93700195 419.03979492 62.69700195 419.03979492 53.17700195 C410.7075454 53.37428783 410.7075454 53.37428783 402.37695312 53.62744141 C392.78841241 53.74221659 392.78841241 53.74221659 389.77026367 50.87231445 C387.58208655 47.46409276 387.03979492 45.22880831 387.03979492 41.17700195 C388.24495277 37.26023893 389.23726096 35.66491599 392.7487793 33.5300293 C398.74024944 31.14757461 405.35448768 31.74689713 411.69604492 31.77856445 C413.12658842 31.77654032 414.55713091 31.77362606 415.9876709 31.76986694 C418.97666306 31.76545952 421.9653851 31.77182315 424.9543457 31.78588867 C428.77068843 31.80297996 432.58639805 31.79313021 436.40271759 31.77517128 C439.35399071 31.76429033 442.30511566 31.76779942 445.25639343 31.77555466 C446.66289852 31.77754478 448.06941741 31.77513947 449.47590637 31.768116 C463.34383845 31.71404933 463.34383845 31.71404933 469.03979492 35.17700195 C471.51794101 38.58445282 472.03979492 40.52757102 472.03979492 44.73950195 C471.1236097 47.88888867 470.33564796 49.89640393 467.95239258 52.16259766 C463.43089878 54.56070931 457.69381771 53.66183416 452.72729492 53.48950195 C448.54041992 53.38637695 444.35354492 53.28325195 440.03979492 53.17700195 C440.03979492 62.41700195 440.03979492 71.65700195 440.03979492 81.17700195 C448.37204445 80.97971608 448.37204445 80.97971608 456.70263672 80.7265625 C466.29042061 80.61179638 466.29042061 80.61179638 469.30932617 83.5090332 C471.03979492 86.17700195 471.03979492 86.17700195 472.03979492 89.17700195 C473.65047852 89.23307617 473.65047852 89.23307617 475.29370117 89.2902832 C476.72993112 89.35599307 478.16612754 89.42243863 479.60229492 89.48950195 C480.30676758 89.51206055 481.01124023 89.53461914 481.73706055 89.55786133 C486.80195189 89.81460697 490.54112482 90.78867899 495.03979492 93.17700195 C497.48702631 96.84784903 497.34237005 99.62642424 497.34619141 103.8737793 C497.35451492 104.65622513 497.36283844 105.43867096 497.37141418 106.24482727 C497.39553101 108.83424846 497.40428827 111.42341783 497.41088867 114.01293945 C497.41985373 115.8127144 497.42897555 117.61248857 497.43824768 119.41226196 C497.45474479 123.18672498 497.4624391 126.96109921 497.46533203 130.7355957 C497.47071664 135.57025946 497.5083964 140.40408799 497.55407619 145.23851585 C497.58383096 148.95660442 497.59105524 152.67449147 497.59205818 156.39268875 C497.59626365 158.17489065 497.60871107 159.95709298 497.62957573 161.7391777 C497.65645843 164.2338868 497.65167522 166.72665516 497.63916016 169.22143555 C497.66141159 170.32351601 497.66141159 170.32351601 497.68411255 171.44786072 C497.62967438 175.26204195 497.1425808 177.04142737 494.81483459 180.11172485 C490.66598442 183.19943756 487.19209629 183.30409711 482.15771484 183.29052734 C481.21711716 183.29045181 480.27651947 183.29037628 479.30741882 183.29029846 C478.30515762 183.28513718 477.30289642 183.27997589 476.27026367 183.2746582 C474.71605461 183.27253578 474.71605461 183.27253578 473.13044739 183.27037048 C469.82936689 183.26478437 466.52835484 183.25223437 463.22729492 183.23950195 C460.98575944 183.23448516 458.7442229 183.22992257 456.50268555 183.22583008 C451.01503208 183.21481949 445.52741839 183.19809514 440.03979492 183.17700195 C440.07459961 184.20180664 440.1094043 185.22661133 440.14526367 186.2824707 C440.17341527 187.64313131 440.20071396 189.00380975 440.22729492 190.36450195 C440.25243164 191.03803711 440.27756836 191.71157227 440.3034668 192.40551758 C440.36903735 196.88617181 439.76465555 199.60603545 437.03979492 203.17700195 C433.61802803 205.74332712 430.19339071 205.54135246 426.03979492 205.17700195 C421.85626399 203.31765487 421.16069498 202.41880208 419.03979492 198.17700195 C419.03979492 193.22700195 419.03979492 188.27700195 419.03979492 183.17700195 C406.16979492 183.17700195 393.29979492 183.17700195 380.03979492 183.17700195 C380.03979492 191.75700195 380.03979492 200.33700195 380.03979492 209.17700195 C382.87573242 209.16652832 385.71166992 209.15605469 388.63354492 209.14526367 C398.01724242 209.11208215 407.40094255 209.09001556 416.78468323 209.07337761 C422.47245393 209.06295303 428.16016437 209.04881797 433.84790039 209.02612305 C439.33976837 209.00434751 444.83157849 208.99242335 450.32348633 208.98724747 C452.41578075 208.98356018 454.5080721 208.97635985 456.6003418 208.96554184 C459.53725967 208.9509644 462.47394028 208.94902664 465.41088867 208.94995117 C466.27044662 208.94276062 467.13000458 208.93557007 468.01560974 208.92816162 C476.56346752 208.9571628 484.38189031 210.48648519 491.03979492 216.17700195 C497.09437179 223.85012907 497.28253493 230.91949132 497.33496094 240.37329102 C497.34648923 241.82228351 497.36695493 243.27123326 497.39648438 244.7199707 C497.43923629 246.81791927 497.45533774 248.91460897 497.46557617 251.01293945 C497.48744995 252.89311768 497.48744995 252.89311768 497.50976562 254.8112793 C496.95825624 258.76094596 495.81906966 260.37606213 493.03979492 263.17700195 C490.01704651 264.68837616 486.89246886 264.31790552 483.57682323 264.31122303 C482.79429651 264.31357526 482.01176979 264.31592749 481.20553014 264.318351 C478.55556011 264.32506409 475.90563885 264.32458209 473.25566101 264.32417297 C471.34771503 264.32747016 469.43976975 264.33119541 467.53182536 264.33531445 C462.26706741 264.34535902 457.00232085 264.34905518 451.73755467 264.35170376 C446.06804296 264.35559951 440.39854035 264.36517828 434.72903442 264.37391663 C421.02709453 264.39370088 407.32515386 264.40374936 393.62320325 264.41264442 C387.1769563 264.41702378 380.73071018 264.42239146 374.28446388 264.42763329 C352.86680457 264.44464691 331.44914658 264.45916747 310.03148174 264.46638203 C308.64595047 264.46685679 307.2604192 264.46733268 305.87488793 264.46780969 C305.18777586 264.46804606 304.5006638 264.46828244 303.79273015 264.46852598 C300.31136437 264.4697272 296.82999859 264.47094264 293.34863281 264.47216797 C292.65774021 264.47240812 291.96684761 264.47264827 291.25501888 264.4728957 C268.84697077 264.4807913 246.43897556 264.50422817 224.03095056 264.53672391 C200.35101424 264.5710016 176.67111825 264.59073007 152.99115497 264.59402627 C140.07841203 264.5961951 127.16574683 264.60499823 114.25302696 264.63048744 C103.25921277 264.6521382 92.26549518 264.66027264 81.27166208 264.65052066 C75.6589397 264.64595971 70.04641687 264.64796603 64.43372154 264.6672821 C59.2997352 264.68479872 54.16609569 264.68401026 49.03210626 264.66838481 C47.17071241 264.66599116 45.30929526 264.67042238 43.44793721 264.68221346 C40.92496127 264.69721098 38.40323368 264.68774513 35.88029003 264.67198658 C35.15118486 264.68220879 34.42207968 264.69243099 33.67088041 264.70296296 C28.86229654 264.63704137 26.41610159 263.58848856 23.03979492 260.17700195 C20.86844163 255.83429537 21.77144542 250.04354235 21.74462891 245.22094727 C21.73315796 243.78562524 21.71278395 242.35034421 21.68310547 240.9152832 C21.48779884 231.47073493 21.50818145 224.34826663 28.00463867 216.93481445 C36.15905048 210.1852221 43.05005301 209.01762083 53.58187866 209.05674744 C54.428217 209.05589301 55.27455533 209.05503859 56.14654028 209.05415827 C58.97474975 209.05251472 61.80289954 209.0580064 64.63110352 209.06347656 C66.66151935 209.0637587 68.69193529 209.06360018 70.72235107 209.06303406 C76.23009352 209.06274713 81.7378142 209.06862699 87.24555159 209.07560802 C93.00310627 209.08185894 98.76066144 209.08244673 104.51821899 209.08363342 C115.41905873 209.0867416 126.31988843 209.09494809 137.22072375 209.10498291 C149.63174996 209.11615997 162.04277665 209.12165852 174.45380664 209.12667835 C199.98247515 209.13713111 225.51113405 209.15492206 251.03979492 209.17700195 C251.03979492 200.59700195 251.03979492 192.01700195 251.03979492 183.17700195 C238.16979492 183.17700195 225.29979492 183.17700195 212.03979492 183.17700195 C212.03979492 187.79700195 212.03979492 192.41700195 212.03979492 197.17700195 C209.03979492 203.17700195 209.03979492 203.17700195 207.28979492 204.55200195 C202.94724621 205.75826548 199.3606308 205.76404012 195.22729492 203.92700195 C192.79647559 201.98234649 192.10291319 201.07554863 191.03979492 198.17700195 C190.90020636 195.55273691 190.85048123 193.04407449 190.91479492 190.42700195 C190.92381836 189.72961914 190.9328418 189.03223633 190.94213867 188.3137207 C190.96559605 186.60133238 191.00146388 184.88912191 191.03979492 183.17700195 C190.22680404 183.17976733 189.41381315 183.18253271 188.57618618 183.18538189 C168.7872813 183.25165718 148.99839557 183.30129008 129.20940304 183.33243847 C119.63956146 183.34790227 110.069794 183.3689825 100.5 183.40332031 C92.15821758 183.43323755 83.81648884 183.4525805 75.47465426 183.45926744 C71.05838758 183.46317575 66.64227448 183.47235072 62.22605705 183.49419212 C58.06710704 183.514594 53.9083735 183.52082829 49.7493782 183.516325 C48.22521474 183.51714854 46.70104385 183.5230922 45.17692375 183.53461838 C43.09029656 183.54962102 41.00447869 183.54592807 38.91783142 183.5377655 C37.7517633 183.54053088 36.58569517 183.54329626 35.38429165 183.54614544 C30.67974772 183.02688892 26.64136149 181.68428371 23.12358093 178.37359619 C21.68758122 175.46314277 21.6794437 173.27460247 21.69921875 170.03149414 C21.69955864 168.1700174 21.69955864 168.1700174 21.6999054 166.27093506 C21.71522403 164.921912 21.73087199 163.57289265 21.74682617 162.22387695 C21.75242417 160.83954325 21.75669331 159.45520359 21.75968933 158.07086182 C21.7711222 154.43423948 21.80057546 150.79797884 21.83380127 147.16149902 C21.86453605 143.44796643 21.87820192 139.73437518 21.89331055 136.02075195 C21.9254471 128.73933739 21.97662405 121.45822043 22.03979492 114.17700195 C21.42201172 114.11714111 20.80422852 114.05728027 20.16772461 113.99560547 C19.35722656 113.91238037 18.54672852 113.82915527 17.71166992 113.7434082 C16.90826172 113.66292236 16.10485352 113.58243652 15.27709961 113.49951172 C11.48507896 112.95288805 9.31485059 111.63507153 6.80322266 108.76293945 C2.11825866 102.20705841 1.66892333 95.06103124 0.85229492 87.23950195 C0.69228616 85.84338265 0.5304927 84.44746678 0.36694336 83.05175781 C0.04985671 80.32240666 -0.25679735 77.5922399 -0.5534668 74.8605957 C-0.89310883 71.78465395 -1.25855725 68.71520555 -1.65161133 65.64575195 C-2.48067075 59.10615874 -3.04705463 52.7703301 -2.96020508 46.17700195 C-4.01208008 46.11512695 -5.06395508 46.05325195 -6.14770508 45.98950195 C-10.76675777 45.00511367 -12.06949989 43.86238271 -14.96020508 40.17700195 C-15.44884873 37.38237612 -15.64165751 35.21009357 -15.58911133 32.42700195 C-15.59152328 31.69126953 -15.59393524 30.95553711 -15.59642029 30.19750977 C-15.59544423 28.64765005 -15.58210781 27.09775443 -15.55712891 25.5480957 C-15.52280091 23.18360282 -15.53648193 20.82284781 -15.5559082 18.45825195 C-15.54900929 16.94781947 -15.53933647 15.43739659 -15.52661133 13.92700195 C-15.5315712 13.22478516 -15.53653107 12.52256836 -15.54164124 11.79907227 C-15.4273544 7.00578415 -14.34957051 4.54775538 -10.96020508 1.17700195 C-7.5746633 -0.51576894 -3.72517442 0.01134869 0 0 Z M357.03979492 183.17700195 C357.03979492 191.75700195 357.03979492 200.33700195 357.03979492 209.17700195 C357.69979492 209.17700195 358.35979492 209.17700195 359.03979492 209.17700195 C359.03979492 200.59700195 359.03979492 192.01700195 359.03979492 183.17700195 C358.37979492 183.17700195 357.71979492 183.17700195 357.03979492 183.17700195 Z " fill="#071C2C" transform="translate(14.960205078125,225.822998046875)"/>
<path d="M0 0 C0.70476471 0.00248749 1.40952942 0.00497498 2.13565063 0.00753784 C12.75466041 0.06544358 22.97052002 0.38862347 33.25 3.3125 C34.06436523 3.54356445 34.87873047 3.77462891 35.71777344 4.01269531 C57.11313827 10.28225486 75.09030988 20.02272321 92.25 34.3125 C92.88679687 34.82554688 93.52359375 35.33859375 94.1796875 35.8671875 C98.72534999 39.60473221 102.52586887 43.76411449 106.25 48.3125 C107.02472656 49.24964844 107.79945313 50.18679687 108.59765625 51.15234375 C131.90709613 79.99430354 142.60764838 117.40194984 138.78125 154.23828125 C135.85979298 178.20686977 127.42497891 200.73267302 113.25 220.3125 C111.00441644 223.02840417 111.00441644 223.02840417 111.3828125 225.5859375 C112.48033202 229.03669707 114.16785517 231.92169498 116.125 234.9375 C116.71522949 235.85184814 116.71522949 235.85184814 117.31738281 236.78466797 C122.16450421 244.0251264 128.17252011 250.09889297 135.015625 255.4921875 C137.40519622 257.43893608 138.12570097 258.27531629 138.48828125 261.30078125 C138.51277344 262.06777344 138.53726562 262.83476562 138.5625 263.625 C138.59988281 264.38425781 138.63726562 265.14351563 138.67578125 265.92578125 C138.06558569 269.34623526 136.71367985 270.88920834 134.25 273.3125 C111.52902416 283.11777119 84.97055965 280.39623596 62.25 272.3125 C60.76992284 271.51842686 59.30487536 270.69377012 57.875 269.8125 C53.27385002 267.90857587 51.38494044 268.64166425 46.7890625 270.17578125 C42.06295587 271.69376914 37.26809363 272.80453115 32.4375 273.9375 C31.07588745 274.26415649 31.07588745 274.26415649 29.68676758 274.59741211 C19.99071795 276.90480152 10.81478938 277.55421602 0.875 277.5625 C-0.2087944 277.56351212 -0.2087944 277.56351212 -1.31448364 277.56454468 C-11.77520008 277.54898657 -21.59188204 277.12726341 -31.75 274.3125 C-33.11316517 273.96828996 -34.47645201 273.62456151 -35.83984375 273.28125 C-57.12313643 267.68436075 -74.98318812 257.41256118 -91.75 243.3125 C-92.38292969 242.80203125 -93.01585937 242.2915625 -93.66796875 241.765625 C-98.21979578 238.02770082 -102.02279612 233.86463834 -105.75 229.3125 C-106.52472656 228.37535156 -107.29945312 227.43820313 -108.09765625 226.47265625 C-131.45129573 197.57600603 -141.63109919 160.85405268 -138.28735352 124.02539062 C-134.65692798 90.31485945 -118.33438 56.30404653 -92.19140625 34.25390625 C-75.25665792 20.78739438 -57.89078411 10.87290874 -37.125 4.5625 C-36.48135498 4.36374268 -35.83770996 4.16498535 -35.17456055 3.96020508 C-23.61939225 0.60844483 -11.97391258 -0.06775517 0 0 Z " fill="#C1C4C6" transform="translate(229.75,21.6875)"/>
<path d="M0 0 C0.70476471 0.00248749 1.40952942 0.00497498 2.13565063 0.00753784 C12.75466041 0.06544358 22.97052002 0.38862347 33.25 3.3125 C34.06436523 3.54356445 34.87873047 3.77462891 35.71777344 4.01269531 C57.11313827 10.28225486 75.09030988 20.02272321 92.25 34.3125 C92.88679687 34.82554688 93.52359375 35.33859375 94.1796875 35.8671875 C98.72534999 39.60473221 102.52586887 43.76411449 106.25 48.3125 C107.02472656 49.24964844 107.79945313 50.18679687 108.59765625 51.15234375 C131.90709613 79.99430354 142.60764838 117.40194984 138.78125 154.23828125 C135.85979298 178.20686977 127.42497891 200.73267302 113.25 220.3125 C111.00441644 223.02840417 111.00441644 223.02840417 111.3828125 225.5859375 C112.48033202 229.03669707 114.16785517 231.92169498 116.125 234.9375 C116.71522949 235.85184814 116.71522949 235.85184814 117.31738281 236.78466797 C122.16450421 244.0251264 128.17252011 250.09889297 135.015625 255.4921875 C137.40519622 257.43893608 138.12570097 258.27531629 138.48828125 261.30078125 C138.51277344 262.06777344 138.53726562 262.83476562 138.5625 263.625 C138.59988281 264.38425781 138.63726562 265.14351563 138.67578125 265.92578125 C138.06558569 269.34623526 136.71367985 270.88920834 134.25 273.3125 C111.52902416 283.11777119 84.97055965 280.39623596 62.25 272.3125 C60.76992284 271.51842686 59.30487536 270.69377012 57.875 269.8125 C53.27385002 267.90857587 51.38494044 268.64166425 46.7890625 270.17578125 C42.06295587 271.69376914 37.26809363 272.80453115 32.4375 273.9375 C31.07588745 274.26415649 31.07588745 274.26415649 29.68676758 274.59741211 C19.99071795 276.90480152 10.81478938 277.55421602 0.875 277.5625 C-0.2087944 277.56351212 -0.2087944 277.56351212 -1.31448364 277.56454468 C-11.77520008 277.54898657 -21.59188204 277.12726341 -31.75 274.3125 C-33.11316517 273.96828996 -34.47645201 273.62456151 -35.83984375 273.28125 C-57.12313643 267.68436075 -74.98318812 257.41256118 -91.75 243.3125 C-92.38292969 242.80203125 -93.01585937 242.2915625 -93.66796875 241.765625 C-98.21979578 238.02770082 -102.02279612 233.86463834 -105.75 229.3125 C-106.52472656 228.37535156 -107.29945312 227.43820313 -108.09765625 226.47265625 C-131.45129573 197.57600603 -141.63109919 160.85405268 -138.28735352 124.02539062 C-134.65692798 90.31485945 -118.33438 56.30404653 -92.19140625 34.25390625 C-75.25665792 20.78739438 -57.89078411 10.87290874 -37.125 4.5625 C-36.48135498 4.36374268 -35.83770996 4.16498535 -35.17456055 3.96020508 C-23.61939225 0.60844483 -11.97391258 -0.06775517 0 0 Z M-78.75 50.3125 C-79.27142578 50.77350098 -79.79285156 51.23450195 -80.33007812 51.70947266 C-100.60206967 69.94538495 -115.56291103 97.98076551 -117.75 125.3125 C-118.69256887 146.57292551 -118.69256887 146.57292551 -114.75 167.3125 C-114.54600586 167.99924805 -114.34201172 168.68599609 -114.13183594 169.39355469 C-104.79454474 200.77609527 -85.49283088 226.92179264 -56.54492188 242.80419922 C-49.46585015 246.59611669 -42.47464838 250.03431152 -34.75 252.3125 C-33.67621094 252.68246094 -32.60242188 253.05242187 -31.49609375 253.43359375 C-21.22260017 256.47876262 -11.07375848 256.6892109 -0.4375 256.6875 C0.2953421 256.68931274 1.0281842 256.69112549 1.78323364 256.69299316 C13.60013168 256.68969046 24.83127446 255.78098418 36.0625 251.875 C37.26519531 251.46378906 38.46789062 251.05257812 39.70703125 250.62890625 C43.28735428 249.35625065 43.28735428 249.35625065 46.76171875 247.65234375 C52.16417833 245.57726689 55.59456403 245.58382519 60.90625 247.921875 C62.1921633 248.62697802 63.47325405 249.34093015 64.75 250.0625 C78.49132051 257.29510964 90.89073226 258.94587187 106.25 258.3125 C104.85308146 255.2673654 103.10682033 252.56349809 101.22802734 249.79516602 C97.35909371 244.04363229 93.99008917 238.19049524 91.125 231.875 C90.81796143 231.22563477 90.51092285 230.57626953 90.19458008 229.90722656 C88.19434132 225.30591015 87.88445286 222.13337898 89.25 217.3125 C91.25390625 214.27734375 91.25390625 214.27734375 93.8125 211.25 C110.84709811 190.15896381 118.42117671 164.69416978 118.4375 137.875 C118.44974609 136.81990234 118.46199219 135.76480469 118.47460938 134.67773438 C118.48755153 127.66740271 117.76014498 121.15408967 116.25 114.3125 C115.97800781 113.06082031 115.70601562 111.80914062 115.42578125 110.51953125 C107.61674499 79.81341131 88.38365788 53.61632346 61.25244141 37.09619141 C16.5227982 10.81792644 -39.8128813 15.57800389 -78.75 50.3125 Z " fill="#071C2C" transform="translate(229.75,21.6875)"/>
<path d="M0 0 C73.59 0 147.18 0 223 0 C221.60425332 3.48936671 220.14054567 6.79936462 218.48681641 10.16113281 C211.73442851 24.05114784 210.85599503 34.73609439 210 51 C140.7 51 71.4 51 0 51 C0 34.17 0 17.34 0 0 Z " fill="#C1C4C6" transform="translate(57,337)"/>
<path d="M0 0 C44.55 0 89.1 0 135 0 C135 16.83 135 33.66 135 51 C95.07 51 55.14 51 14 51 C13.67 45.06 13.34 39.12 13 33 C11.25548577 22.12244067 7.13968687 13.59189969 2 4 C1.34 2.68 0.68 1.36 0 0 Z " fill="#CFD1D3" transform="translate(357,337)"/>
<path d="M0 0 C0.72939755 -0.00290688 1.45879511 -0.00581376 2.21029562 -0.00880873 C4.67957279 -0.01616725 7.14860599 -0.00913839 9.61788177 -0.002285 C11.39597276 -0.00458713 13.1740628 -0.00776197 14.95215082 -0.01173949 C19.85787483 -0.02013027 24.76352158 -0.0159429 29.66924596 -0.00976706 C34.95219413 -0.00526098 40.23512856 -0.01221711 45.51807404 -0.0177269 C55.87512953 -0.02664236 66.23215612 -0.02468934 76.58921278 -0.01890162 C85.00305315 -0.01439357 93.41688539 -0.0137685 101.83072662 -0.01594925 C103.02605889 -0.01625572 104.22139116 -0.01656218 105.45294562 -0.01687793 C107.88087809 -0.01751735 110.30881056 -0.01816578 112.73674303 -0.01882312 C135.52896604 -0.02453272 158.32117299 -0.01795866 181.11339337 -0.00722238 C200.69037769 0.00171369 220.26733831 0.00016183 239.8443222 -0.00905991 C262.55234019 -0.01975143 285.26034409 -0.02398334 307.96836424 -0.01783538 C310.38760344 -0.01719825 312.80684264 -0.01656951 315.22608185 -0.01594925 C316.41654197 -0.0156407 317.6070021 -0.01533215 318.83353677 -0.01501425 C327.24190524 -0.01328395 335.65026481 -0.0162096 344.0586319 -0.02090836 C354.29896863 -0.0265048 364.53927469 -0.0250269 374.77960789 -0.01434687 C380.00912486 -0.00907343 385.23859058 -0.0070617 390.46810722 -0.01364517 C395.24842727 -0.01957234 400.02864823 -0.01638345 404.80895919 -0.00569007 C406.54512708 -0.00344222 408.28130322 -0.00462299 410.01746589 -0.00944164 C412.36403514 -0.01545858 414.71025782 -0.00935175 417.05680847 0 C419.01795664 0.00048706 419.01795664 0.00048706 421.01872396 0.00098395 C424.02840424 0.25168228 424.02840424 0.25168228 426.02840424 2.25168228 C426.02840424 6.21168228 426.02840424 10.17168228 426.02840424 14.25168228 C282.47840424 14.25168228 138.92840424 14.25168228 -8.97159576 14.25168228 C-8.97159576 0.00222812 -8.97159576 0.00222812 0 0 Z " fill="#AB8100" transform="translate(65.97159576416016,455.74831771850586)"/>
<path d="M0 0 C-1.36168754 3.47098999 -2.86730936 6.81470684 -4.51293945 10.16137695 C-10.9624969 23.42324753 -12.31274675 34.81472076 -14 50 C-54.26 50 -94.52 50 -136 50 C-134.02 47.69 -132.04 45.38 -130 43 C-128.8859216 41.44137834 -127.79892119 39.86268781 -126.75219727 38.25805664 C-94.35331485 -9.54935408 -53.1550873 -5.1038767 0 0 Z " fill="#CED0D2" transform="translate(280,337)"/>
<path d="M0 0 C0.66 0.33 1.32 0.66 2 1 C1.0925 1.66 0.185 2.32 -0.75 3 C-5.28895384 6.86133751 -7.54519827 10.91839948 -8.41796875 16.83203125 C-8.76748742 24.19081625 -7.39317634 30.01826862 -3 36 C2.93416741 41.63551128 8.66743761 42.42399735 16.56640625 42.3359375 C22.63172757 41.74251585 27.67146014 39.71573356 31.69140625 35.02734375 C35.98707798 28.47980991 37.09689483 21.76027466 36 14 C33.62722965 8.45838326 30.34250141 4.14425678 26 0 C31.21937955 1.38160047 34.07466471 4.67559131 37 9 C41.98302192 17.8818717 46.2675959 26.36165124 46.22705078 36.76147461 C46.22689972 38.06229477 46.22674866 39.36311493 46.22659302 40.70335388 C46.21638281 42.10301877 46.20595087 43.50268205 46.1953125 44.90234375 C46.19157733 46.34965315 46.18873274 47.79696511 46.18673706 49.24427795 C46.17914024 53.03365187 46.15952625 56.82286985 46.1373291 60.61218262 C46.11316614 65.16941353 46.10407085 69.72669691 46.09242249 74.28397369 C46.07309909 81.18942389 46.03474935 88.09453265 46 95 C24.88 95 3.76 95 -18 95 C-18.16043524 78.96984587 -18.16043524 78.96984587 -18.1953125 72.07617188 C-18.21911796 67.39328622 -18.24711531 62.7107168 -18.30175781 58.02807617 C-18.34558743 54.24790318 -18.36921422 50.46806984 -18.37950897 46.68766212 C-18.38683447 45.25370763 -18.40113733 43.81976929 -18.42292023 42.38596153 C-18.62902448 28.24229712 -15.11659438 14.44820621 -4.9921875 3.91015625 C-3.38983399 2.53161325 -1.70342858 1.25149855 0 0 Z " fill="#7C858B" transform="translate(305,341)"/>
<path d="M0 0 C29.04 0 58.08 0 88 0 C84.51107052 4.07041773 81.22242739 7.90248906 77.46337891 11.65014648 C76.62296051 12.49048935 75.78254211 13.33083221 74.91665649 14.19664001 C73.58505997 15.52049461 73.58505997 15.52049461 72.2265625 16.87109375 C71.3028183 17.793423 70.3790741 18.71575226 69.42733765 19.66603088 C66.99324569 22.09633814 64.55616403 24.52362496 62.1184082 26.95025635 C59.6226689 29.43569364 57.12982292 31.92402932 54.63671875 34.41210938 C49.7606114 39.27755096 44.88133369 44.13980198 40 49 C49.46655679 49.42060163 58.92981555 49.73857766 68.40373802 49.93261909 C72.80543485 50.02585256 77.20066225 50.15176979 81.59863281 50.35791016 C104.11120109 52.06575217 104.11120109 52.06575217 123.99591064 43.3237915 C130.44805161 36.76455401 134.8534134 29.78880228 135.01083374 20.42166138 C134.93751238 18.39877911 134.78477865 16.39269258 134.625 14.375 C134.58272809 12.96376869 134.54885476 11.55226047 134.5234375 10.140625 C134.43049741 6.74831176 134.25617664 3.38320936 134 0 C134.33 0 134.66 0 135 0 C135 16.83 135 33.66 135 51 C95.07 51 55.14 51 14 51 C13.67 45.06 13.34 39.12 13 33 C11.25548577 22.12244067 7.13968687 13.59189969 2 4 C1.34 2.68 0.68 1.36 0 0 Z " fill="#C1C4C6" transform="translate(357,337)"/>
<path d="M0 0 C14.52 0 29.04 0 44 0 C43.0409375 8.8790625 43.0409375 8.8790625 42.0625 17.9375 C41.76291382 20.71208618 41.76291382 20.71208618 41.45727539 23.54272461 C41.29574643 25.03759882 41.13420737 26.53247194 40.97265625 28.02734375 C40.89140503 28.78019653 40.81015381 29.53304932 40.72644043 30.30871582 C40.16088982 35.54026963 39.58308663 40.7703709 39 46 C38.17798096 46.02505615 37.35596191 46.0501123 36.5090332 46.07592773 C32.77670626 46.19212655 29.04461683 46.31474505 25.3125 46.4375 C24.01892578 46.47681641 22.72535156 46.51613281 21.39257812 46.55664062 C20.14541016 46.59853516 18.89824219 46.64042969 17.61328125 46.68359375 C15.89298706 46.73858032 15.89298706 46.73858032 14.13793945 46.79467773 C11.33006722 46.97840298 8.73774186 47.3699382 6 48 C3.90921864 38.0202475 2.92910339 27.94053568 1.875 17.8125 C1.25625 11.934375 0.6375 6.05625 0 0 Z " fill="#AB8100" transform="translate(32,271)"/>
<path d="M0 0 C0.86825912 0.00222061 1.73651825 0.00444122 2.63108826 0.00672913 C3.61202957 0.00680466 4.59297089 0.00688019 5.6036377 0.00695801 C6.6702916 0.01211929 7.7369455 0.01728058 8.83592224 0.02259827 C9.92211349 0.02401321 11.00830475 0.02542816 12.12741089 0.02688599 C15.61230674 0.03250403 19.09713941 0.04505959 22.58201599 0.05775452 C24.93813486 0.06276719 27.29425473 0.0673305 29.65037537 0.07142639 C35.44011342 0.08247933 41.22980398 0.09975605 47.01951599 0.12025452 C47.01951599 7.05025452 47.01951599 13.98025452 47.01951599 21.12025452 C30.51951599 21.12025452 14.01951599 21.12025452 -2.98048401 21.12025452 C-2.98048401 0.18097428 -2.98048401 0.18097428 0 0 Z " fill="#112534" transform="translate(281.98048400878906,129.87974548339844)"/>
<path d="M0 0 C0.86825912 0.00222061 1.73651825 0.00444122 2.63108826 0.00672913 C3.61202957 0.00680466 4.59297089 0.00688019 5.6036377 0.00695801 C6.6702916 0.01211929 7.7369455 0.01728058 8.83592224 0.02259827 C9.92211349 0.02401321 11.00830475 0.02542816 12.12741089 0.02688599 C15.61230674 0.03250403 19.09713941 0.04505959 22.58201599 0.05775452 C24.93813486 0.06276719 27.29425473 0.0673305 29.65037537 0.07142639 C35.44011342 0.08247933 41.22980398 0.09975605 47.01951599 0.12025452 C47.01951599 7.05025452 47.01951599 13.98025452 47.01951599 21.12025452 C30.51951599 21.12025452 14.01951599 21.12025452 -2.98048401 21.12025452 C-2.98048401 0.18097428 -2.98048401 0.18097428 0 0 Z " fill="#112535" transform="translate(152.98048400878906,129.87974548339844)"/>
<path d="M0 0 C16.17 0 32.34 0 49 0 C49 6.6 49 13.2 49 20 C32.83 20 16.66 20 0 20 C0 13.4 0 6.8 0 0 Z " fill="#071C2C" transform="translate(189,206)"/>
<path d="M0 0 C16.17 0 32.34 0 49 0 C49 6.6 49 13.2 49 20 C32.83 20 16.66 20 0 20 C0 13.4 0 6.8 0 0 Z " fill="#091E2E" transform="translate(189,165)"/>
<path d="M0 0 C16.17 0 32.34 0 49 0 C49 6.6 49 13.2 49 20 C32.83 20 16.66 20 0 20 C0 13.4 0 6.8 0 0 Z " fill="#0A1F2E" transform="translate(215,131)"/>
<path d="M0 0 C3.36105235 1.7505481 6.12901285 3.8639298 8.4375 6.875 C9.56986014 11.15280497 9.58891225 14.70439305 7.75 18.75 C5.39958054 21.77196788 3.44740833 23.73876045 -0.40234375 24.43359375 C-4.675718 24.4401783 -7.27129608 24.44025862 -11 22.1875 C-14.91884647 17.90126167 -15.54763919 15.14979117 -15.45703125 9.515625 C-14.8135966 5.97398468 -13.26046703 4.37270337 -10.60546875 2.05859375 C-7.15706472 -0.21517144 -4.00821308 -0.46248612 0 0 Z " fill="#0D2131" transform="translate(268,163)"/>
<path d="M0 0 C3.19215004 2.69559337 4.51488143 4.40581379 5.8125 8.375 C6.11859475 13.0962796 5.40960129 15.67340598 2.3125 19.3125 C1.075 20.3334375 1.075 20.3334375 -0.1875 21.375 C-0.5175 21.705 -0.8475 22.035 -1.1875 22.375 C-6.00289887 22.91896172 -9.94480895 23.09990311 -14.1875 20.625 C-17.70631594 16.66633207 -18.70658442 13.86378836 -18.57421875 8.40625 C-17.75240832 4.08966995 -14.75609262 1.48819476 -11.25 -1 C-6.87225785 -2.32658853 -4.08736572 -2.08375507 0 0 Z " fill="#0C2030" transform="translate(209.1875,95.625)"/>
<path d="M0 0 C3.23551706 2.11011982 4.85394116 3.78091174 7 7 C7.4775733 11.85532856 7.51341394 14.04398784 5.1875 18.375 C2.89786282 21.12256462 1.29646394 22.79124733 -2.3046875 23.37109375 C-9.26542605 23.55093046 -9.26542605 23.55093046 -13 20.75 C-13.66 19.8425 -14.32 18.935 -15 18 C-15.45375 17.401875 -15.9075 16.80375 -16.375 16.1875 C-17.37425016 12.69012444 -16.95229415 9.44607162 -16 6 C-11.83914344 -0.59997936 -7.5499503 -2.10137782 0 0 Z " fill="#0B2030" transform="translate(310,164)"/>
<path d="M0 0 C4.81659662 2.45551985 7.28103603 4.84310809 9 10 C9 14.31352253 8.26295003 17.03359663 5.625 20.375 C2.35249133 23.64750867 0.76612454 23.92464349 -3.8125 24.375 C-7.13837543 24.35045479 -8.86645916 23.73648282 -11.4375 21.625 C-15.34989467 17.61718107 -15.39865931 14.92015055 -15.3515625 9.48046875 C-15 7 -15 7 -12.75 4 C-8.30122091 0.7645243 -5.64302589 -0.67716311 0 0 Z " fill="#0C2030" transform="translate(166,163)"/>
<path d="M0 0 C4.81659662 2.45551985 7.28103603 4.84310809 9 10 C9 14.31352253 8.26295003 17.03359663 5.625 20.375 C2.35249133 23.64750867 0.76612454 23.92464349 -3.8125 24.375 C-7.13837543 24.35045479 -8.86645916 23.73648282 -11.4375 21.625 C-15.34989467 17.61718107 -15.39865931 14.92015055 -15.3515625 9.48046875 C-15 7 -15 7 -12.75 4 C-8.30122091 0.7645243 -5.64302589 -0.67716311 0 0 Z " fill="#0C2030" transform="translate(166,94)"/>
<path d="M0 0 C3.6578218 2.03993908 5.66946174 3.50419262 8 7 C8.66535838 11.06919178 8.92277334 15.22543589 6.984375 18.953125 C4.8540259 21.59681123 3.23432752 22.92189083 0 24 C-6.83159214 24.67195988 -6.83159214 24.67195988 -9.8203125 22.953125 C-12.79318675 20.51163407 -14.7937985 18.66434064 -15.2734375 14.79296875 C-15.54869359 7.73159145 -15.54869359 7.73159145 -12.75 4 C-8.30122091 0.7645243 -5.64302589 -0.67716311 0 0 Z " fill="#0B202F" transform="translate(287,94)"/>
<path d="M0 0 C3.01111389 1.83285193 4.58109177 3.29547252 6.375 6.3125 C7.21219504 9.91243865 6.89539601 12.41841597 6 16 C3.75224975 19.48788832 1.83276147 21.46130014 -2 23 C-6.91726732 23.34306516 -10.19124784 22.67396013 -14 19.5 C-14.66 18.675 -15.32 17.85 -16 17 C-16.33 16.67 -16.66 16.34 -17 16 C-17.65981659 10.90998634 -17.89344763 7.19126351 -14.75 3 C-13.8425 2.34 -12.935 1.68 -12 1 C-11.401875 0.54625 -10.80375 0.0925 -10.1875 -0.375 C-6.68772066 -1.37493695 -3.44899662 -0.94624559 0 0 Z " fill="#0B1F2F" transform="translate(168,205)"/>
<path d="M0 0 C3.53160708 1.05281871 5.48081665 3.02769165 8.0703125 5.6171875 C9.80017905 9.0769206 9.55462739 12.83429549 9.0703125 16.6171875 C7.01192725 19.95319117 5.3309861 21.4434051 2.0703125 23.6171875 C-1.32025776 24.16312678 -4.53953673 24.16869528 -7.9296875 23.6171875 C-10.9921875 21.1796875 -10.9921875 21.1796875 -12.9296875 18.6171875 C-13.2596875 18.2871875 -13.5896875 17.9571875 -13.9296875 17.6171875 C-14.56393575 12.21701668 -14.96988339 7.99474422 -11.6171875 3.5546875 C-7.3208784 0.45734838 -5.40459875 -0.81766992 0 0 Z " fill="#0B1F2F" transform="translate(245.9296875,94.3828125)"/>
<path d="M0 0 C22.44 0 44.88 0 68 0 C68 1.65 68 3.3 68 5 C45.56 5 23.12 5 0 5 C0 3.35 0 1.7 0 0 Z " fill="#A17B03" transform="translate(20,246)"/>
<path d="M0 0 C2.125 0.9375 2.125 0.9375 4 2 C3.67 3.32 3.34 4.64 3 6 C1.35 5.67 -0.3 5.34 -2 5 C-2 3.68 -2 2.36 -2 1 C-1.34 0.67 -0.68 0.34 0 0 Z " fill="#B0B5B8" transform="translate(318,358)"/>
<path d="M0 0 C0.66 0.33 1.32 0.66 2 1 C1.071875 1.70125 0.14375 2.4025 -0.8125 3.125 C-3.90095295 5.67315622 -5.44426187 8.28351447 -7 12 C-7.66 11.01 -8.32 10.02 -9 9 C-7.87895467 7.68412059 -6.75303035 6.37239647 -5.625 5.0625 C-4.99851562 4.33160156 -4.37203125 3.60070312 -3.7265625 2.84765625 C-2 1 -2 1 0 0 Z " fill="#667179" transform="translate(305,341)"/>
<path d="M0 0 C4.41889613 1.35021826 6.34345343 3.26115668 9 7 C6 7 6 7 3.375 4.625 C1 2 1 2 0 0 Z " fill="#626D76" transform="translate(331,341)"/>
</svg>
